<?xml version="1.0" standalone="no"?>
<!DOCTYPE svg PUBLIC "-//W3C//DTD SVG 20010904//EN"
 "http://www.w3.org/TR/2001/REC-SVG-20010904/DTD/svg10.dtd">
<svg version="1.0" xmlns="http://www.w3.org/2000/svg"
 width="1024.000000pt" height="1024.000000pt" viewBox="0 0 1024.000000 1024.000000"
 preserveAspectRatio="xMidYMid meet">

<g transform="translate(0.000000,1024.000000) scale(0.100000,-0.100000)"
fill="#000000" stroke="none">
<path d="M4947 9796 c-12 -5 -80 -13 -152 -18 -139 -8 -257 -21 -345 -37 -30
-5 -84 -14 -120 -20 -36 -6 -85 -15 -110 -21 -25 -6 -63 -15 -85 -20 -22 -5
-58 -14 -80 -20 -22 -6 -51 -14 -65 -17 -86 -18 -312 -91 -455 -147 -205 -80
-381 -166 -598 -293 -63 -37 -323 -208 -358 -236 -16 -12 -49 -38 -75 -57
-196 -147 -489 -419 -624 -578 -82 -97 -111 -135 -250 -325 -128 -175 -342
-564 -427 -778 -83 -210 -97 -248 -153 -424 -17 -55 -62 -229 -71 -277 -5 -27
-14 -72 -19 -100 -33 -164 -48 -278 -58 -428 -4 -63 -12 -124 -18 -135 -16
-30 -11 -481 5 -520 9 -20 11 -57 8 -108 -4 -57 -1 -89 10 -115 9 -22 13 -52
10 -76 -4 -25 0 -50 10 -69 8 -16 13 -41 10 -56 -3 -14 1 -38 9 -53 8 -15 13
-40 12 -56 -1 -15 2 -34 7 -42 5 -8 12 -32 16 -55 5 -22 13 -60 19 -85 7 -25
13 -57 14 -71 2 -14 6 -31 10 -38 4 -7 9 -22 11 -34 7 -44 101 -303 151 -415
13 -29 24 -57 24 -63 0 -5 13 -36 29 -68 17 -32 39 -85 50 -117 12 -32 36 -81
55 -109 19 -27 46 -72 60 -100 34 -63 56 -99 123 -202 29 -44 53 -84 53 -88 0
-4 16 -25 35 -48 19 -22 33 -43 30 -45 -3 -3 4 -11 15 -19 11 -8 20 -21 20
-28 0 -8 13 -27 30 -41 16 -15 27 -30 25 -34 -3 -4 15 -27 40 -51 25 -24 45
-50 45 -57 0 -7 36 -48 80 -90 44 -43 80 -82 80 -88 0 -6 42 -49 93 -97 186
-175 211 -203 230 -255 16 -46 17 -116 17 -903 l1 -854 23 -25 c55 -61 76 -74
112 -72 20 2 42 -2 50 -9 9 -7 45 -9 116 -4 57 4 1304 9 2772 11 2623 4 2669
4 2700 24 18 10 42 37 54 59 23 41 24 76 2 141 -4 14 -41 126 -81 250 -39 124
-128 394 -197 600 -68 206 -128 389 -132 405 -5 17 -19 61 -34 99 -36 99 -31
111 78 198 50 40 111 92 136 115 25 23 81 75 126 115 286 257 551 590 763 958
68 119 201 394 197 407 -3 7 -2 13 3 13 4 0 16 19 26 43 47 113 82 205 95 247
77 244 124 425 116 438 -3 5 1 24 10 41 8 17 14 41 13 53 -2 13 0 29 5 36 11
18 28 126 31 197 1 33 7 73 14 89 8 20 10 53 5 98 -5 51 -3 72 7 84 20 24 26
453 8 521 -7 27 -13 93 -13 149 -1 70 -5 106 -15 118 -10 11 -12 30 -7 62 4
32 1 54 -10 76 -10 19 -14 42 -10 60 4 18 0 38 -9 52 -9 13 -15 41 -14 62 1
22 -3 53 -9 69 -21 61 -32 102 -32 123 0 11 -4 31 -9 44 -5 13 -14 41 -20 63
-74 275 -260 748 -341 865 -9 14 -30 50 -46 80 -36 67 -65 116 -128 211 -107
164 -138 209 -153 220 -15 13 -54 67 -80 112 -11 20 -32 43 -196 222 -91 98
-302 302 -388 373 -153 126 -144 119 -286 218 -367 254 -848 485 -1238 594
-103 29 -197 53 -240 62 -27 5 -70 14 -95 19 -227 49 -360 67 -550 78 -74 4
-142 11 -150 14 -24 11 -328 13 -353 3z m1466 -666 c342 -50 616 -206 777
-445 112 -166 178 -374 202 -640 2 -24 12 -35 48 -54 93 -52 159 -141 195
-265 23 -79 24 -332 1 -434 -36 -164 -123 -267 -259 -307 -48 -14 -58 -21 -62
-43 -16 -81 -50 -184 -77 -232 -38 -67 -190 -220 -277 -277 -35 -24 -58 -43
-49 -43 53 0 346 -43 407 -60 99 -28 208 -79 284 -134 168 -120 407 -424 647
-826 171 -285 206 -386 198 -574 -5 -96 -10 -125 -41 -209 -48 -130 -114 -269
-134 -284 -17 -13 -158 -18 -187 -7 -25 9 -20 33 30 145 74 167 106 273 107
354 1 149 -28 217 -236 549 -187 298 -293 442 -417 566 -172 172 -273 212
-636 245 -87 8 -187 15 -221 15 -35 0 -63 4 -63 9 0 6 18 43 40 83 22 40 40
76 40 81 0 4 -127 7 -282 7 -156 1 -512 7 -793 14 -280 8 -511 13 -512 12 -2
-1 -9 -36 -17 -76 -7 -40 -20 -79 -29 -85 -9 -7 -119 -16 -279 -23 -290 -13
-334 -21 -409 -76 -26 -19 -122 -129 -221 -252 -407 -509 -469 -584 -488 -594
-39 -21 -66 -11 -117 43 -27 28 -66 80 -87 115 -22 34 -45 62 -52 62 -8 0 -58
-41 -112 -91 -53 -50 -136 -120 -184 -156 -99 -74 -97 -60 -25 -168 164 -246
362 -467 466 -519 132 -67 291 -8 526 194 155 134 141 104 154 335 17 281 39
525 52 556 20 50 82 63 125 26 33 -28 32 2 10 -447 -8 -184 -20 -452 -26 -595
-6 -143 -13 -272 -16 -287 -6 -30 -14 -33 -92 -43 -78 -10 -80 -6 -74 132 4
98 3 115 -9 107 -8 -4 -48 -33 -89 -64 -89 -65 -213 -131 -290 -154 -34 -11
-90 -17 -147 -17 -166 1 -261 49 -433 221 -119 118 -239 270 -352 445 -86 131
-155 254 -163 286 -6 24 -3 27 62 48 104 34 280 124 356 182 77 58 162 153
237 264 28 41 54 75 58 75 4 -1 28 -31 55 -68 26 -37 65 -87 87 -112 l40 -45
46 50 c25 28 142 170 259 316 218 272 290 346 388 395 100 51 167 63 385 65
78 1 142 3 142 5 0 1 -28 17 -61 35 -78 42 -197 152 -249 232 -22 34 -53 98
-68 142 l-27 80 3 565 c2 311 8 595 13 632 11 84 43 157 100 228 24 30 60 92
80 137 91 204 271 383 504 500 203 103 355 140 675 167 77 7 492 -4 563 -14z
m-3378 -489 c93 -40 178 -79 187 -88 22 -20 23 -45 3 -83 -13 -26 -14 -34 -1
-62 17 -41 50 -73 98 -92 28 -12 69 -15 165 -14 126 2 130 1 228 -36 147 -56
352 -159 416 -209 60 -48 112 -121 147 -204 32 -75 52 -236 59 -475 l6 -208
-38 -16 c-35 -14 -42 -14 -80 0 -65 25 -81 49 -105 161 -36 171 -109 292 -196
325 -38 15 -101 12 -134 -5 -38 -20 -56 -15 -205 53 -229 103 -482 210 -535
226 -67 20 -83 12 -110 -61 -26 -70 -45 -93 -78 -93 -37 0 -403 167 -429 196
-14 15 -23 38 -23 57 0 20 52 146 141 337 164 356 177 375 262 367 35 -3 109
-28 222 -76z m291 -1027 c88 -41 141 -64 222 -95 l23 -9 -21 -29 c-23 -34
-179 -372 -216 -471 -56 -148 -98 -240 -109 -240 -7 0 -59 22 -116 48 -57 27
-130 59 -161 71 -32 13 -58 27 -58 31 0 5 22 55 49 112 59 124 194 420 246
541 21 48 39 87 40 87 2 0 47 -21 101 -46z m-586 -811 c58 -28 116 -54 129
-58 33 -10 17 -21 -68 -44 -126 -35 -215 -103 -263 -199 -32 -66 -33 -198 -1
-258 27 -50 77 -96 142 -129 l49 -24 -33 -104 c-42 -131 -55 -158 -101 -195
-78 -65 -212 -61 -327 8 -30 18 -31 18 -68 -3 l-38 -22 -41 40 c-57 55 -80
103 -80 167 0 46 11 77 81 223 44 94 110 233 146 310 104 225 115 244 156 282
90 81 159 82 317 6z m503 -240 c181 -99 228 -363 107 -603 -75 -149 -272 -352
-420 -433 -74 -40 -186 -80 -201 -72 -14 9 -11 134 5 196 8 31 44 115 80 188
36 73 73 156 82 185 l16 52 90 27 c121 37 138 49 138 99 0 44 -34 88 -68 88
-11 0 -53 -14 -93 -31 -134 -57 -225 -47 -276 30 -42 62 -26 141 38 195 136
115 369 151 502 79z m-904 -958 c40 -17 91 -29 138 -32 89 -7 93 -12 70 -98
-28 -108 -188 -529 -210 -552 -29 -33 -72 -29 -174 13 -221 91 -234 111 -155
239 17 28 77 144 133 258 78 156 107 207 119 203 8 -2 44 -16 79 -31z m4740
-206 c12 -11 24 -38 27 -59 5 -32 29 -67 109 -163 56 -67 150 -173 209 -234
91 -97 106 -117 106 -146 0 -33 -10 -49 -251 -424 -22 -35 -50 -68 -62 -74
-30 -17 -311 -6 -333 12 -20 16 -16 108 23 509 14 146 28 330 32 410 3 80 10
151 15 158 12 19 65 40 87 35 9 -3 27 -14 38 -24z m-1169 -1279 c182 -53 341
-175 434 -335 62 -107 74 -144 52 -161 -22 -16 -403 -107 -415 -100 -5 4 -17
28 -26 55 -45 137 -212 219 -388 191 -184 -29 -326 -167 -377 -366 -54 -209
-1 -432 135 -570 97 -99 204 -141 340 -132 133 9 272 98 304 196 8 23 20 42
26 42 7 0 55 -16 108 -34 52 -19 139 -47 193 -61 54 -14 100 -28 102 -30 7 -7
-37 -94 -76 -152 -50 -73 -151 -169 -230 -217 -161 -97 -396 -143 -597 -117
-367 49 -641 293 -736 656 -21 78 -24 111 -23 255 1 135 5 179 23 245 80 299
308 537 598 625 113 34 158 39 323 36 123 -3 171 -8 230 -26z m-2700 -509
l254 -504 251 504 250 504 229 3 c177 2 231 -1 238 -10 4 -7 8 -400 8 -874 0
-656 -3 -863 -12 -872 -14 -14 -354 -17 -375 -4 -10 6 -13 132 -15 551 l-3
543 -222 -453 -222 -454 -131 -3 -131 -3 -222 452 -222 452 -5 -544 -5 -544
-184 -3 c-127 -2 -188 1 -197 9 -19 16 -21 1728 -2 1747 9 9 71 12 238 10
l225 -3 255 -504z m4368 486 c153 -41 283 -142 346 -270 98 -200 84 -494 -32
-673 -48 -73 -96 -114 -187 -160 -110 -54 -177 -64 -447 -64 l-238 0 0 -284
c0 -250 -2 -285 -16 -290 -31 -12 -369 -7 -382 6 -9 9 -12 218 -12 878 0 477
3 870 7 874 4 4 208 6 453 3 373 -3 455 -6 508 -20z m-3319 -2072 c81 -19 188
-76 250 -131 213 -192 258 -564 97 -806 -118 -178 -307 -268 -541 -255 -166 9
-299 70 -407 187 -303 330 -146 887 283 1000 91 23 229 26 318 5z m-1475 -15
l26 -9 2 -220 3 -220 169 221 c93 121 179 223 190 228 25 9 242 13 268 4 10
-3 18 -10 18 -15 0 -5 -90 -127 -200 -271 -126 -164 -197 -265 -192 -272 270
-352 433 -578 429 -591 -5 -12 -29 -15 -146 -15 -77 0 -146 3 -155 6 -8 3 -97
116 -198 250 l-183 244 -3 -236 c-1 -155 -6 -242 -13 -251 -15 -18 -239 -19
-257 -1 -9 9 -12 149 -12 568 0 305 4 560 8 566 4 6 14 14 22 17 25 9 197 8
224 -3z m2679 -14 c118 -33 190 -90 236 -186 23 -49 26 -67 26 -170 0 -103 -3
-121 -26 -171 -32 -67 -89 -127 -147 -154 l-41 -20 129 -195 c93 -139 129
-202 128 -220 l-3 -25 -124 -3 c-82 -2 -128 1 -137 9 -8 6 -69 98 -136 205
l-122 194 -53 0 -53 0 0 -193 c0 -137 -3 -196 -12 -205 -17 -17 -239 -17 -256
0 -18 18 -17 1121 1 1140 21 21 512 16 590 -6z m1209 13 c16 -8 18 -23 18
-112 0 -67 -4 -107 -12 -115 -9 -9 -75 -12 -237 -12 l-226 0 0 -105 0 -105
202 0 c111 0 204 -3 207 -8 4 -6 9 -162 7 -204 -1 -17 -18 -18 -206 -18 l-205
0 0 -115 0 -115 228 0 c125 0 233 -4 240 -8 9 -6 12 -38 10 -123 l-3 -114
-364 -3 c-260 -2 -368 1 -377 9 -21 17 -21 1134 0 1146 22 12 696 14 718 2z
m822 -3 c7 -6 47 -105 89 -221 42 -115 133 -367 202 -558 99 -275 123 -352
114 -363 -17 -21 -242 -20 -259 1 -7 8 -27 61 -44 117 l-32 103 -206 3 -206 2
-26 -87 c-15 -49 -30 -97 -33 -108 -12 -42 -21 -45 -148 -45 -91 0 -125 4
-134 14 -10 12 94 308 391 1118 5 15 17 29 26 31 35 10 253 4 266 -7z"/>
<path d="M5650 8864 c-271 -37 -472 -127 -619 -276 -34 -33 -61 -65 -61 -69 0
-5 262 -9 583 -9 682 0 903 -6 972 -25 107 -30 230 -127 290 -228 55 -94 58
-135 51 -562 -14 -859 -15 -866 -116 -1037 -23 -38 -40 -71 -38 -73 7 -7 81
16 132 42 95 48 201 179 236 292 27 85 26 122 -4 150 -70 66 -111 256 -102
471 7 191 42 298 125 392 47 52 50 74 30 215 -40 292 -198 514 -453 638 -165
80 -213 87 -591 91 -248 2 -356 -1 -435 -12z"/>
<path d="M4955 8264 c-6 -1 -26 -5 -46 -8 -84 -14 -162 -97 -180 -190 -7 -38
-24 -734 -24 -1002 0 -119 0 -121 38 -196 64 -130 196 -228 338 -249 102 -15
1124 -39 1189 -27 162 29 304 163 339 320 15 67 35 1128 22 1175 -24 85 -84
142 -173 162 -36 9 -1472 23 -1503 15z m259 -405 c77 -53 117 -162 96 -262
-14 -69 -63 -144 -110 -169 -46 -24 -126 -24 -166 1 -37 22 -75 71 -95 121
-21 53 -17 167 8 215 27 50 81 103 119 115 45 14 111 5 148 -21z m904 -17
c134 -96 117 -358 -28 -432 -123 -63 -253 30 -267 191 -10 102 35 203 110 250
44 28 139 23 185 -9z m-858 -731 c181 -138 453 -147 662 -21 75 45 108 50 138
20 66 -66 -42 -169 -240 -232 -63 -19 -96 -23 -210 -23 -122 0 -144 3 -223 29
-137 45 -267 135 -267 186 0 32 25 69 54 80 24 9 25 8 86 -39z"/>
<path d="M7298 7720 c-41 -31 -60 -93 -65 -210 -7 -133 8 -213 47 -252 57 -57
135 -20 158 74 28 113 23 281 -10 353 -13 28 -55 55 -86 55 -11 0 -31 -9 -44
-20z"/>
<path d="M7117 4763 c-37 -326 -35 -366 17 -285 96 149 156 253 156 267 0 18
-125 158 -145 163 -7 2 -17 -48 -28 -145z"/>
<path d="M7020 3519 l0 -231 193 4 c191 3 192 3 245 32 42 24 57 39 78 83 24
47 26 62 22 132 -5 89 -25 133 -76 168 -50 33 -118 43 -297 43 l-165 0 0 -231z"/>
<path d="M4033 1790 c-199 -41 -305 -282 -221 -507 44 -120 137 -192 258 -201
214 -15 351 122 352 353 2 155 -69 286 -179 333 -57 24 -152 34 -210 22z"/>
<path d="M5140 1631 l0 -151 83 0 c100 0 148 13 188 48 62 55 57 170 -9 220
-33 25 -44 27 -149 31 l-113 3 0 -151z"/>
<path d="M7351 1708 c-1 -4 -28 -91 -61 -194 -33 -102 -60 -190 -60 -195 0 -5
59 -9 131 -9 l130 0 -7 23 c-19 61 -133 381 -133 375z m22 -273 c7 -51 6 -61
-9 -72 -22 -16 -26 -16 -49 1 -16 12 -17 18 -6 62 24 93 52 97 64 9z"/>
</g>
</svg>
